# xmcd CD database file
#
# Track frame offsets:
#	150
#	28165
#	54408
#	88711
#	105695
#	141722
#	165651
#	183976
#	207557
#	238511
#	255572
#
# Disc length: 3880 seconds
#
# Revision: 1
# Processed by: cddbd v1.5.2PL0 Copyright (c) Steve Scherf et al.
# Submitted via: CDex 1.70beta2
#
DISCID=9d0f260b
DTITLE=Elisabeth KONTOMANOU - Back To My Groove
DYEAR=2007
DGENRE=Jazz
TTITLE0=Bact To My Groove
TTITLE1=What A Life
TTITLE2=Where I'm Comming From
TTITLE3=The Abuse
TTITLE4=Black Angel
TTITLE5=You've Changed My World
TTITLE6=Late Cold Night
TTITLE7=Summer
TTITLE8=My Love
TTITLE9=Dreams Of Gold
TTITLE10=Peace On Earth
EXTD=YEAR: 2007
EXTT0=
EXTT1=
EXTT2=
EXTT3=
EXTT4=
EXTT5=
EXTT6=
EXTT7=
EXTT8=
EXTT9=
EXTT10=
PLAYORDER=
